# xmcd
#
# Track frame offsets:
#	150
#	11075
#	25943
#	39508
#	51898
#	63803
#	76248
#	89880
#	104008
#	118745
#	132865
#	147060
#	154963
#	172255
#	183323
#	197148
#	210565
#	224175
#
# Disc length: 3111 seconds
#
# Revision: 0
# Processed by: cddbd v1.4PL0 Copyright (c) Steve Scherf et al.
# Submitted via: dBpowerAMP V4.0
#
DISCID=110c2512
DTITLE=FP and TR - FRENTE A FRENTE
DYEAR=1900
DGENRE=
TTITLE0=Cuando estemos Viejos - Felipe Pirela
TTITLE1=Pobre del Pobre - Felipe Pirela
TTITLE2=Tristeza Marina - Felipe Pirela
TTITLE3=Por la Vuelta - Felipe Pirela
TTITLE4=quisqueya - Felipe Pirela
TTITLE5=El son se fué de Cuba - Felipe Pirela
TTITLE6=Imágenes - Felipe Pirela
TTITLE7=Entre copa y copa - Felipe Pirela
TTITLE8=Juguete - Felipe Pirela
TTITLE9=Inolvidable - Tito Rodríguez
TTITLE10=En Mi Soledad - Tito Rodríguez
TTITLE11=Cuando estoy contigo - Tito Rodríguez
TTITLE12=Quien lo diria - Tito Rodríguez
TTITLE13=Llanto de luna - Tito Rodríguez
TTITLE14=Cuando, Cuando - Tito Rodríguez
TTITLE15=Piensa en mi - Tito Rodríguez
TTITLE16=Cuando ya no me quieras - Tito Rodríguez
TTITLE17=Cara de payaso - Tito Rodríguez
EXTD=Felipe Pirela y Tito Rodríguez
EXTT0=
EXTT1=
EXTT2=
EXTT3=
EXTT4=
EXTT5=
EXTT6=
EXTT7=
EXTT8=
EXTT9=
EXTT10=
EXTT11=
EXTT12=
EXTT13=
EXTT14=
EXTT15=
EXTT16=
EXTT17=
PLAYORDER=
